# xmcd CD database file
#
# Track frame offsets:
#	150
#	14200
#	73078
#	89824
#	127988
#	141828
#	158465
#	172672
#	201571
#	217544
#
# Disc length: 3580 seconds
#
# Revision: 0
# Processed by: cddbd v1.5.1PL2 Copyright (c) Steve Scherf et al.
# Submitted via: CDex 1.51
#
DISCID=8a0dfa0a
DTITLE=もえたん製作委員会 - MOETAN Listening CD
DYEAR=2005
DGENRE=Anime
TTITLE0=Prologue
TTITLE1=Chapter 1:They say the lunatic people aim at a place near the wall.
TTITLE2=Interval
TTITLE3=Chapter 2:That's the flag, you idiot!
TTITLE4=Interval
TTITLE5=Chapter 3:Listen to my song!
TTITLE6=Interval
TTITLE7=Chapter 4:Don't be feeling so good about yourself!
TTITLE8=Epilogue
TTITLE9=Bonus truck
EXTD=YEAR: 2005/12/29
EXTT0=
EXTT1=
EXTT2=
EXTT3=
EXTT4=
EXTT5=
EXTT6=
EXTT7=
EXTT8=
EXTT9=
PLAYORDER=
